/* XPM */
static char *result[] = {
/* columns rows colors chars-per-pixel */
"40 40 3 1 ",
"  c #306230",
". c #8BAC0F",
"X c #9BBC0F",
/* pixels */
"XXXXXXXXXXXXXXXXXXXXXXXXXXXXXXXXXXXXXXXX",
"XXXXXXXXXXXXXXXXXXXXXXXXXXXXXXXXXXXXXXXX",
"XXXXXXXXXXXXXXXXXXXXXXXXXXXXXXXXXXXXXXXX",
"XXXXXXXXXXX                  XXXXXXXXXXX",
"XXXXXXXXXX .................. XXXXXXXXXX",
"XXXXXXXXX ..                .. XXXXXXXXX",
"XXXXXXXX .. XXXXXXXXXXXXXXXX .. XXXXXXXX",
"XXXXXXX .. XXXXXXXXXXXXXXXXXX .. XXXXXXX",
"XXXXXX .. XXXXXXXXXXXXXXXXXXXX .. XXXXXX",
"XXXXX .. XXXXXXXXXXXXXXXXXXXXXX .. XXXXX",
"XXXX .. XXXXXXXXXXXXXXXXXXXXXXXX .. XXXX",
"XXX .. XXXXXX  XXXXXXXXXX  XXXXXX .. XXX",
"XXX . XXXXXXX   XXXXXXXX   XXXXXXX . XXX",
"XXX . XXXXXXX    XXXXXX    XXXXXXX . XXX",
"XXX . XXXXXXX     XXXX     XXXXXXX . XXX",
"XXX . XXXXXXX  X   XX   X  XXXXXXX . XXX",
"XXX . XXXXXXX  XX      XX  XXXXXXX . XXX",
"XXX . XXXXXXX  XXX    XXX  XXXXXXX . XXX",
"XXX . XXXXXXX  XXX    XXX  XXXXXXX . XXX",
"XXX . XXXXXXX  XXXXXXXXXX  XXXXXXX . XXX",
"XXX . XXXXXXX  XXXXXXXXXX  XXXXXXX . XXX",
"XXX . XXX                      XXX . XXX",
"XXX . XXXXXXX  XXXXXXXXXX  XXXXXXX . XXX",
"XXX . XXXXXXX  XXXXXXXXXX  XXXXXXX . XXX",
"XXX . XXXXXXX  XXXXXXXXXX  XXXXXXX . XXX",
"XXX . XXX                      XXX . XXX",
"XXX . XXXXXXX  XXXXXXXXXX  XXXXXXX . XXX",
"XXX . XXXXXXX  XXXXXXXXXX  XXXXXXX . XXX",
"XXX .. XXXXXX  XXXXXXXXXX  XXXXXX .. XXX",
"XXXX .. XXXXX  XXXXXXXXXX  XXXXX .. XXXX",
"XXXXX .. XXXX  XXXXXXXXXX  XXXX .. XXXXX",
"XXXXXX .. XXXXXXXXXXXXXXXXXXXX .. XXXXXX",
"XXXXXXX .. XXXXXXXXXXXXXXXXXX .. XXXXXXX",
"XXXXXXXX .. XXXXXXXXXXXXXXXX .. XXXXXXXX",
"XXXXXXXXX ..                .. XXXXXXXXX",
"XXXXXXXXXX .................. XXXXXXXXXX",
"XXXXXXXXXXX                  XXXXXXXXXXX",
"XXXXXXXXXXXXXXXXXXXXXXXXXXXXXXXXXXXXXXXX",
"XXXXXXXXXXXXXXXXXXXXXXXXXXXXXXXXXXXXXXXX",
"XXXXXXXXXXXXXXXXXXXXXXXXXXXXXXXXXXXXXXXX"
};
