/* XPM */
static char *result[] = {
/* columns rows colors chars-per-pixel */
"40 40 4 1 ",
"  c #0F380F",
". c #306230",
"X c #8BAC0F",
"o c #9BBC0F",
/* pixels */
"oooooooooooooooooooooooooooooooooooooooo",
"oooooooooooooooooooooooooooooooooooooooo",
"oooooooooooooooooooooooooooooooooooooooo",
"ooooooooooooooooooo  ooooooooooooooooooo",
"ooooooooooooooooo      ooooooooooooooooo",
"ooooooooooooooo          ooooooooooooooo",
"oooooooooooooo    .XX.    oooooooooooooo",
"ooooooooooooo   XX.XX.XX   ooooooooooooo",
"oooooooooooo   .XX.XX.XX.   oooooooooooo",
"ooooooooooo   X.XX.XX.XX.X   ooooooooooo",
"oooooooooo   XX.XX.XX.XX.XX   oooooooooo",
"oooooooooo  .XX.XX.XX.XX.XX.  oooooooooo",
"oooooooooo  .XX.XX.XX.XX.XX.  oooooooooo",
"oooooooooo  .XX.XX.XX.XX.XX.  oooooooooo",
"oooooooooo  .XX.XX.XX.XX.XX.  oooooooooo",
"oooooooooo  .XX.XX.XX.XX.XX.  oooooooooo",
"oooooooooo  .XX.XX.XX.XX.XX.  oooooooooo",
"oooooooooo  .XX.XX.XX.XX.XX.  oooooooooo",
"oooooooooo  .XX.XX.XX.XX.XX.  oooooooooo",
"oooooooooo  .XX.XX.XX.XX.XX.  oooooooooo",
"oooooooooo  .XX.XX.XX.XX.XX.  oooooooooo",
"oooooooooo  .XX.XX.XX.X  XX.  oooooooooo",
"oooooooooo  .XX.XX.XX.X  XX.  oooooooooo",
"oooooooooo  .XX.XX.XX.XX.XX.  oooooooooo",
"oooooooooo  .XX.XX.XX.XX.XX.  oooooooooo",
"oooooooooo  .XX.XX.XX.XX.XX.  oooooooooo",
"oooooooooo  .XX.XX.XX.XX.XX.  oooooooooo",
"oooooooooo  .XX.XX.XX.XX.XX.  oooooooooo",
"oooooooooo  .XX.XX.XX.XX.XX.  oooooooooo",
"oooooooooo  .XX.XX.XX.XX.XX.  oooooooooo",
"oooooooooo  .XX.XX.XX.XX.XX.  oooooooooo",
"oooooooooo  .XX.XX.XX.XX.XX.  oooooooooo",
"oooooooooo  .XX.XX.XX.XX.XX.  oooooooooo",
"oooooooooo  .XX.XX.XX.XX.XX.  oooooooooo",
"oooooooooo  .XX.XX.XX.XX.XX.  oooooooooo",
"oooooooooo                    oooooooooo",
"oooooooooo                    oooooooooo",
"oooooooooooooooooooooooooooooooooooooooo",
"oooooooooooooooooooooooooooooooooooooooo",
"oooooooooooooooooooooooooooooooooooooooo"
};
