/* XPM */
static char *result[] = {
/* columns rows colors chars-per-pixel */
"40 40 4 1 ",
"  c #0F380F",
". c #306230",
"X c #8BAC0F",
"o c None",
/* pixels */
"ooooooooo                      ooooooooo",
"ooooooooo                      ooooooooo",
"ooooooooo  ..................  ooooooooo",
"ooooooooo  ..................  ooooooooo",
"ooooooooo  ..................  ooooooooo",
"ooooooooo  ..................  ooooooooo",
"ooooooooo  ..................  ooooooooo",
"ooooooooo  ..................  ooooooooo",
"ooooooooo  ..XXXXXXXXXXXXXX..  ooooooooo",
"ooooooooo  ..XXXXXXXXXXXXXX..  ooooooooo",
"ooooooooo  XXXXXXXXXXXXXXXXXX  ooooooooo",
"ooooooooo  XXXXXXXXXXXXXXXXXX  ooooooooo",
"ooooooooo  XXXXXXXXXXXXXXXXXX  ooooooooo",
"ooooooooo  XXXXXXXXXXXXXXXXXX  ooooooooo",
"ooooooooo  XXXXXXXXXXXXXXXXXX  ooooooooo",
"ooooooooo  XXXXXXXXXXXXXXXXXX  ooooooooo",
"ooooooooo  XXXXX  XXXX  XXXXX  ooooooooo",
"ooooooooo  XXXXX  XXXX  XXXXX  ooooooooo",
"ooooooooo  XXXXX  XXXX  XXXXX  ooooooooo",
"ooooooooo  XXXXX  XXXX  XXXXX  ooooooooo",
"ooooooooo    XXXXX....XXXXX    ooooooooo",
"ooooooooo    XXXXX....XXXXX    ooooooooo",
"ooooooo    ..              ..    ooooooo",
"ooooooo    ..              ..    ooooooo",
"ooooo  XXXX                  XXXX  ooooo",
"ooooo  XXXX                  XXXX  ooooo",
"ooooo  XXXX  ..  ......  ..  XXXX  ooooo",
"ooooo  XXXX  ..  ......  ..  XXXX  ooooo",
"ooooooo        ..........        ooooooo",
"ooooooo        ..........        ooooooo",
"ooooooooo  ..................  ooooooooo",
"ooooooooo  .....        .....  ooooooooo",
"ooooooooo  ....  ......  ....  ooooooooo",
"ooooooooo  .... ........ ....  ooooooooo",
"ooooooooo  .... ........ ....  ooooooooo",
"ooooooooo  .... ........ ....  ooooooooo",
"ooooooooo  ....          ....  ooooooooo",
"ooooooooo  ....          ....  ooooooooo",
"ooooooooo      oooooooooo      ooooooooo",
"ooooooooo      oooooooooo      ooooooooo"
};
