/* XPM */
static char *result[] = {
/* columns rows colors chars-per-pixel */
"40 40 4 1 ",
"  c #0F380F",
". c #306230",
"X c #8BAC0F",
"o c None",
/* pixels */
"ooooooooo                      ooooooooo",
"ooooooooo                      ooooooooo",
"ooooooooo  ..................  ooooooooo",
"ooooooooo  ..................  ooooooooo",
"ooooooooo  ..................  ooooooooo",
"ooooooooo  ..................  ooooooooo",
"ooooooooo  ..................  ooooooooo",
"ooooooooo  ..................  ooooooooo",
"ooooooooo  ..................  ooooooooo",
"ooooooooo  XXXXXXXX..........  ooooooooo",
"ooooooooo  XXXXXXXX..........  ooooooooo",
"ooooooooo  XXXXXXXXXXXX......  ooooooooo",
"ooooooooo  XXXXXXXXXXXX......  ooooooooo",
"ooooooooo  XXXXXXXXXXXXXXXX..  ooooooooo",
"ooooooooo  XX  XXXXXXXXXXXX..  ooooooooo",
"ooooooooo  XX  XXXXXXXXXXXXXX  ooooooooo",
"ooooooooo  XX  XXXXXXXXXXXXXX  ooooooooo",
"ooooooooo  XX  XXXXXXXXXXXXXX  ooooooooo",
"ooooooooo  XXXXXXXXXXXXXXXXXX  ooooooooo",
"ooooooooo  XXXXXXXXXXXXXXXXXX  ooooooooo",
"ooooooooooo  ..XXXXXXX         ooooooooo",
"ooooooooooo  ..XXXXXXX         ooooooooo",
"ooooooooooooo                  ooooooooo",
"ooooooooooooo                  ooooooooo",
"ooooooooooooo            ..XX  ooooooooo",
"ooooooooooooo            ..XX  ooooooooo",
"ooooooooooooo  ..        ..XX  ooooooooo",
"ooooooooooooo  ..        ..XX  ooooooooo",
"ooooooooooooo  ..        ....  ooooooooo",
"ooooooooooooo  ..        ....  ooooooooo",
"ooooooooooooo    XXXXXX  ..  ooooooooooo",
"ooooooooooooo    XXXXXX  ..  ooooooooooo",
"ooooooooooooo    XXXXXX    ooooooooooooo",
"ooooooooooooo    XXXXXX    ooooooooooooo",
"ooooooooooo            ..  ooooooooooooo",
"ooooooooooo            ..  ooooooooooooo",
"ooooooooooo  ......    ..  ooooooooooooo",
"ooooooooooo  ......    ..  ooooooooooooo",
"ooooooooooo              ooooooooooooooo",
"ooooooooooo              ooooooooooooooo"
};
