/* XPM */
static char *result[] = {
/* columns rows colors chars-per-pixel */
"40 40 4 1 ",
"  c #0F380F",
". c #306230",
"X c #8BAC0F",
"o c None",
/* pixels */
"ooooooooo                      ooooooooo",
"ooooooooo                      ooooooooo",
"ooooooooo  ..................  ooooooooo",
"ooooooooo  ..................  ooooooooo",
"ooooooooo  ..................  ooooooooo",
"ooooooooo  ..................  ooooooooo",
"ooooooooo  ..................  ooooooooo",
"ooooooooo  ..................  ooooooooo",
"ooooooooo  ..................  ooooooooo",
"ooooooooo  ..........XXXXXXXX  ooooooooo",
"ooooooooo  ..........XXXXXXXX  ooooooooo",
"ooooooooo  ......XXXXXXXXXXXX  ooooooooo",
"ooooooooo  ......XXXXXXXXXXXX  ooooooooo",
"ooooooooo  ..XXXXXXXXXXXX  XX  ooooooooo",
"ooooooooo  ..XXXXXXXXXXXX  XX  ooooooooo",
"ooooooooo  XXXXXXXXXXXXXX  XX  ooooooooo",
"ooooooooo  XXXXXXXXXXXXXX  XX  ooooooooo",
"ooooooooo  XXXXXXXXXXXXXX  XX  ooooooooo",
"ooooooooo  XXXXXXXXXXXXXXXXXX  ooooooooo",
"ooooooooo  XXXXXXXXXXXXXXXXXX  ooooooooo",
"ooooooooo         XXXXXXX..  ooooooooooo",
"ooooooooo         XXXXXXX..  ooooooooooo",
"ooooooooo                  ooooooooooooo",
"ooooooooo                  ooooooooooooo",
"ooooooooo  XX..            ooooooooooooo",
"ooooooooo  XX..            ooooooooooooo",
"ooooooooo  XX..        ..  ooooooooooooo",
"ooooooooo  XX..        ..  ooooooooooooo",
"ooooooooo  ....        ..  ooooooooooooo",
"ooooooooo  ....        ..  ooooooooooooo",
"ooooooooooo  ..  XXXXXX    ooooooooooooo",
"ooooooooooo  ..  XXXXXX    ooooooooooooo",
"ooooooooooooo    XXXXXX    ooooooooooooo",
"ooooooooooooo    XXXXXX    ooooooooooooo",
"ooooooooooooo  ..            ooooooooooo",
"ooooooooooooo  ..            ooooooooooo",
"ooooooooooooo  ..    ......  ooooooooooo",
"ooooooooooooo  ..    ......  ooooooooooo",
"ooooooooooooooo              ooooooooooo",
"ooooooooooooooo              ooooooooooo"
};
