/* XPM */
static char *result[] = {
/* columns rows colors chars-per-pixel */
"40 40 4 1 ",
"  c #0F380F",
". c #306230",
"X c #8BAC0F",
"o c None",
/* pixels */
"ooooooooo                      ooooooooo",
"ooooooooo                      ooooooooo",
"ooooooooo  ..................  ooooooooo",
"ooooooooo  ..................  ooooooooo",
"ooooooooo  ..................  ooooooooo",
"ooooooooo  ..................  ooooooooo",
"ooooooooo  ..................  ooooooooo",
"ooooooooo  ..................  ooooooooo",
"ooooooooo  ..................  ooooooooo",
"ooooooooo  ..................  ooooooooo",
"ooooooooo  ..................  ooooooooo",
"ooooooooo  ..................  ooooooooo",
"ooooooooo  ..................  ooooooooo",
"ooooooooo  ..................  ooooooooo",
"ooooooooo  ..................  ooooooooo",
"ooooooooo  ..................  ooooooooo",
"ooooooooo  XX..............XX  ooooooooo",
"ooooooooo  XX..............XX  ooooooooo",
"ooooooooo  XXXXXXXXXXXXXXXXXX  ooooooooo",
"ooooooooo  XXXXXXXXXXXXXXXXXX  ooooooooo",
"ooooooooo                      ooooooooo",
"ooooooooo                      ooooooooo",
"ooooooo  ..                  ..  ooooooo",
"ooooooo  ..                  ..  ooooooo",
"ooooo  XX      ...XXXX...      XX  ooooo",
"ooooo  XX      ...XXXX...      XX  ooooo",
"ooooo  XX    ..............    XX  ooooo",
"ooooo  XX    ..............    XX  ooooo",
"ooooooo        ..........        ooooooo",
"ooooooo        ..........        ooooooo",
"ooooooooo      ..........      ooooooooo",
"ooooooooo      ..........      ooooooooo",
"ooooooooo                      ooooooooo",
"ooooooooo                      ooooooooo",
"ooooooooo                      ooooooooo",
"ooooooooo                      ooooooooo",
"ooooooooo  ....          ....  ooooooooo",
"ooooooooo  ....          ....  ooooooooo",
"ooooooooo      oooooooooo      ooooooooo",
"ooooooooo      oooooooooo      ooooooooo"
};
