/* XPM */
static char *result[] = {
/* columns rows colors chars-per-pixel */
"40 40 2 1 ",
"  c #306230",
". c #9BBC0F",
/* pixels */
"             .            .          .  ",
"             .            .          .  ",
"             .            .          .  ",
"             .            .          .  ",
"             .            .          .  ",
"........................................",
"      .            .             .      ",
"      .            .             .      ",
"      .            .             .      ",
"      .            .             .      ",
"      .            .             .      ",
"........................................",
"             .            .          .  ",
"             .            .          .  ",
"             .            .          .  ",
"             .            .          .  ",
"             .            .          .  ",
"........................................",
"      .            .             .      ",
"      .            .             .      ",
"      .            .             .      ",
"      .            .             .      ",
"      .            .             .      ",
"........................................",
"             .            .          .  ",
"             .            .          .  ",
"             .            .          .  ",
"             .            .          .  ",
"             .            .          .  ",
"........................................",
"      .            .             .      ",
"      .            .             .      ",
"      .            .             .      ",
"      .            .             .      ",
"      .            .             .      ",
"........................................",
"             .            .          .  ",
"             .            .          .  ",
"             .            .          .  ",
"             .            .          .  "
};
